<svg xmlns="http://www.w3.org/2000/svg" viewBox="0 0 30 30" class="icon-controls">
  <g transform="translate(1 2)">
    <path d="M17.1260175,5 L0,5 L0,3 L17.1260175,3 C17.5700603,1.27477279 19.1361606,0 21,0 C22.8638394,0 24.4299397,1.27477279 24.8739825,3 L28,3 L28,5 L24.8739825,5 C24.4299397,6.72522721 22.8638394,8 21,8 C19.1361606,8 17.5700603,6.72522721 17.1260175,5 Z M21,6 C22.1045695,6 23,5.1045695 23,4 C23,2.8954305 22.1045695,2 21,2 C19.8954305,2 19,2.8954305 19,4 C19,5.1045695 19.8954305,6 21,6 Z"/>
    <path d="M17.1260175,14 L0,14 L0,12 L17.1260175,12 C17.5700603,10.2747728 19.1361606,9 21,9 C22.8638394,9 24.4299397,10.2747728 24.8739825,12 L28,12 L28,14 L24.8739825,14 C24.4299397,15.7252272 22.8638394,17 21,17 C19.1361606,17 17.5700603,15.7252272 17.1260175,14 Z M21,15 C22.1045695,15 23,14.1045695 23,13 C23,11.8954305 22.1045695,11 21,11 C19.8954305,11 19,11.8954305 19,13 C19,14.1045695 19.8954305,15 21,15 Z" transform="rotate(-180 14 13)"/>
    <path d="M17.1260175,23 L0,23 L0,21 L17.1260175,21 C17.5700603,19.2747728 19.1361606,18 21,18 C22.8638394,18 24.4299397,19.2747728 24.8739825,21 L28,21 L28,23 L24.8739825,23 C24.4299397,24.7252272 22.8638394,26 21,26 C19.1361606,26 17.5700603,24.7252272 17.1260175,23 Z M21,24 C22.1045695,24 23,23.1045695 23,22 C23,20.8954305 22.1045695,20 21,20 C19.8954305,20 19,20.8954305 19,22 C19,23.1045695 19.8954305,24 21,24 Z"/>
  </g>
</svg>
