<svg xmlns="http://www.w3.org/2000/svg" viewBox="0 0 1157 170">
  <g fill="none" fill-rule="evenodd">
    <polygon fill="#0496FF" points="672.347 58.539 716.74 58.539 716.74 22.194 694.543 6.523 672.347 22.194"/>
    <polygon fill="#000" points="672.347 22.194 694.543 6.523 650.366 6.462 627.953 22.194"/>
    <polygon fill="#FFF" points="627.953 58.539 672.347 58.539 672.347 22.194 627.953 22.194"/>
    <polygon fill="#FFF" points="691.981 42.318 697.958 42.318 697.958 36.341 691.981 36.341"/>
    <polygon fill="#1D5FD1" points="656.126 42.318 662.102 42.318 662.102 36.341 656.126 36.341"/>
    <polygon fill="#1D5FD1" points="638.197 42.318 644.174 42.318 644.174 36.341 638.197 36.341"/>
    <path fill="#FFF" d="M263.3027 80.3682L3.2067 80.3682C1.7387 80.3682.5487 79.1792.5487 77.7102L.5487 76.9892C.5487 75.5202 1.7387 74.3312 3.2067 74.3312L263.3027 74.3312C264.7707 74.3312 265.9617 75.5202 265.9617 76.9892L265.9617 77.7102C265.9617 79.1792 264.7707 80.3682 263.3027 80.3682M271.0571 99.4434L10.9611 99.4434C9.4931 99.4434 8.3031 98.2544 8.3031 96.7854L8.3031 96.0644C8.3031 94.5964 9.4931 93.4064 10.9611 93.4064L271.0571 93.4064C272.5251 93.4064 273.7151 94.5964 273.7151 96.0644L273.7151 96.7854C273.7151 98.2544 272.5251 99.4434 271.0571 99.4434M278.8115 118.5196L18.7155 118.5196C17.2475 118.5196 16.0565 117.3296 16.0565 115.8616L16.0565 115.1396C16.0565 113.6716 17.2475 112.4816 18.7155 112.4816L278.8115 112.4816C280.2795 112.4816 281.4695 113.6716 281.4695 115.1396L281.4695 115.8616C281.4695 117.3296 280.2795 118.5196 278.8115 118.5196"/>
    <polygon fill="#1D5FD1" points="761.22 58.539 805.614 58.539 805.614 22.194 783.416 6.523 761.22 22.194"/>
    <polygon fill="#000" points="761.22 22.194 783.416 6.523 739.24 6.462 716.827 22.194"/>
    <polygon fill="#FFF" points="716.827 58.539 761.22 58.539 761.22 22.194 716.827 22.194"/>
    <polygon fill="#FFF" points="780.855 42.318 786.831 42.318 786.831 36.341 780.855 36.341"/>
    <polygon fill="#1D5FD1" points="744.999 42.318 750.976 42.318 750.976 36.341 744.999 36.341"/>
    <polygon fill="#1D5FD1" points="727.071 42.318 733.047 42.318 733.047 36.341 727.071 36.341"/>
    <polygon fill="#0496FF" points="50.126 169.577 94.519 169.577 94.519 133.233 72.322 117.561 50.126 133.233"/>
    <polygon fill="#000" points="50.126 133.233 72.322 117.561 28.145 117.501 5.732 133.233"/>
    <polygon fill="#FFF" points="5.732 169.577 50.126 169.577 50.126 133.233 5.732 133.233"/>
    <polygon fill="#FFF" points="69.761 153.357 75.737 153.357 75.737 147.38 69.761 147.38"/>
    <polygon fill="#1D5FD1" points="33.905 153.357 39.881 153.357 39.881 147.38 33.905 147.38"/>
    <polygon fill="#1D5FD1" points="15.977 153.357 21.953 153.357 21.953 147.38 15.977 147.38"/>
    <polygon fill="#000" points="42.503 119.039 50.503 119.039 50.503 111.039 42.503 111.039"/>
    <polygon fill="#0496FF" points="253.441 58.539 297.834 58.539 297.834 22.194 275.638 6.523 253.441 22.194"/>
    <polygon fill="#000" points="253.441 22.194 275.638 6.523 231.461 6.462 209.048 22.194"/>
    <polygon fill="#FFF" points="209.048 58.539 253.441 58.539 253.441 22.194 209.048 22.194"/>
    <polygon fill="#FFF" points="273.077 42.318 279.053 42.318 279.053 36.341 273.077 36.341"/>
    <polygon fill="#000" points="245.819 8 253.819 8 253.819 0 245.819 0"/>
    <polygon fill="#FFF" points="183.112 169.539 131.112 169.539 131.112 40.585 157.112 22.227 183.112 40.585"/>
    <polygon fill="#000" points="183.112 40.585 157.112 22.228 208.859 22.156 235.112 40.585"/>
    <polygon fill="#1D5FD1" points="183.112 169.539 235.112 169.539 235.112 40.585 183.112 40.585"/>
    <polygon fill="#1D5FD1" points="153.112 64.156 160.112 64.156 160.112 57.156 153.112 57.156"/>
    <polygon fill="#1D5FD1" points="153.112 94.156 160.112 94.156 160.112 87.156 153.112 87.156"/>
    <polygon fill="#FFF" points="195.112 64.156 202.112 64.156 202.112 57.156 195.112 57.156"/>
    <polygon fill="#FFF" points="216.112 64.156 223.112 64.156 223.112 57.156 216.112 57.156"/>
    <polygon fill="#FFF" points="195.112 94.156 202.112 94.156 202.112 87.156 195.112 87.156"/>
    <polygon fill="#FFF" points="216.112 94.156 223.112 94.156 223.112 87.156 216.112 87.156"/>
    <polygon fill="#FFF" points="257.245 169.539 205.245 169.539 205.245 126.967 231.245 108.61 257.245 126.967"/>
    <polygon fill="#000" points="257.245 126.967 231.245 108.611 282.992 108.539 309.245 126.967"/>
    <polygon fill="#1D5FD1" points="257.245 169.539 309.245 169.539 309.245 126.967 257.245 126.967"/>
    <polygon fill="#1D5FD1" points="227.245 150.539 234.245 150.539 234.245 143.539 227.245 143.539"/>
    <polygon fill="#FFF" points="269.245 150.539 276.245 150.539 276.245 143.539 269.245 143.539"/>
    <polygon fill="#FFF" points="290.245 150.539 297.245 150.539 297.245 143.539 290.245 143.539"/>
    <polygon fill="#FFF" points="671.056 169.539 610.219 169.539 610.219 110.527 640.638 89.051 671.056 110.527"/>
    <polygon fill="#CEE0EF" points="626.533 116.539 652.157 116.539 652.157 109.539 626.533 109.539"/>
    <path fill="#1D5FD1" d="M640.3447,146.1319 L640.3447,146.1319 C636.3317,146.1319 633.0787,149.3849 633.0787,153.3979 L633.0787,169.5389 L647.6117,169.5389 L647.6117,153.3979 C647.6117,149.3849 644.3587,146.1319 640.3447,146.1319"/>
    <polygon fill="#000" points="671.056 110.527 640.638 89.05 701.179 88.966 731.893 110.527"/>
    <polygon fill="#1D5FD1" points="671.056 169.539 731.893 169.539 731.893 110.527 671.056 110.527"/>
    <polygon fill="#000" points="609.634 110.527 640.053 89.05 579.512 88.966 548.798 110.527"/>
    <polygon fill="#0496FF" points="548.797 169.539 609.633 169.539 609.633 110.527 548.797 110.527"/>
    <polygon fill="#FFF" points="685.096 142.199 693.285 142.199 693.285 134.01 685.096 134.01"/>
    <polygon fill="#FFF" points="709.665 142.199 717.854 142.199 717.854 134.01 709.665 134.01"/>
    <polygon fill="#FFF" points="562.837 142.199 571.026 142.199 571.026 134.01 562.837 134.01"/>
    <polygon fill="#FFF" points="587.406 142.199 595.595 142.199 595.595 134.01 587.406 134.01"/>
    <polygon fill="#FFF" points="453.998 169.539 401.998 169.539 401.998 34.395 427.998 16.039 453.998 34.395"/>
    <polygon fill="#000" points="453.998 34.396 427.998 16.04 463.745 15.967 489.998 34.396"/>
    <polygon fill="#000" points="445.999 17.967 453.999 17.967 453.999 9.967 445.999 9.967"/>
    <polygon fill="#1D5FD1" points="453.999 169.539 489.999 169.539 489.999 34.395 453.999 34.395"/>
    <polygon fill="#1D5FD1" points="423.999 57.967 430.999 57.967 430.999 50.967 423.999 50.967"/>
    <polygon fill="#FFF" points="468.499 57.967 475.499 57.967 475.499 50.967 468.499 50.967"/>
    <polygon fill="#FFF" points="468.499 87.967 475.499 87.967 475.499 80.967 468.499 80.967"/>
    <path fill="#6AE28C" d="M94.519,30.1163 C94.519,37.2383 88.745,43.0123 81.623,43.0123 C74.501,43.0123 68.727,37.2383 68.727,30.1163 C68.727,22.9943 74.501,17.2203 81.623,17.2203 C88.745,17.2203 94.519,22.9943 94.519,30.1163"/>
    <polygon fill="#6AE28C" points="80.814 58.672 82.433 58.672 82.433 30.116 80.814 30.116"/>
    <path fill="#EBF4FF" d="M366.9146,38.1163 C366.9146,43.6413 362.4346,48.1223 356.9086,48.1223 C351.3826,48.1223 346.9026,43.6413 346.9026,38.1163 C346.9026,32.5903 351.3826,28.1103 356.9086,28.1103 C362.4346,28.1103 366.9146,32.5903 366.9146,38.1163"/>
    <polygon fill="#EBF4FF" points="356.099 58.672 357.718 58.672 357.718 30.116 356.099 30.116"/>
    <path fill="#EBF4FF" d="M551.4863,38.1163 C551.4863,43.6413 547.0073,48.1223 541.4803,48.1223 C535.9543,48.1223 531.4743,43.6413 531.4743,38.1163 C531.4743,32.5903 535.9543,28.1103 541.4803,28.1103 C547.0073,28.1103 551.4863,32.5903 551.4863,38.1163"/>
    <polygon fill="#EBF4FF" points="540.671 58.672 542.29 58.672 542.29 30.116 540.671 30.116"/>
    <path fill="#EBF4FF" d="M1101.1748,38.1163 C1101.1748,43.6413 1096.6958,48.1223 1091.1688,48.1223 C1085.6428,48.1223 1081.1628,43.6413 1081.1628,38.1163 C1081.1628,32.5903 1085.6428,28.1103 1091.1688,28.1103 C1096.6958,28.1103 1101.1748,32.5903 1101.1748,38.1163"/>
    <polygon fill="#EBF4FF" points="1090.36 58.672 1091.979 58.672 1091.979 30.116 1090.36 30.116"/>
    <path fill="#6AE28C" d="M589.2051,30.1163 C589.2051,37.2383 583.4321,43.0123 576.3091,43.0123 C569.1871,43.0123 563.4131,37.2383 563.4131,30.1163 C563.4131,22.9943 569.1871,17.2203 576.3091,17.2203 C583.4321,17.2203 589.2051,22.9943 589.2051,30.1163"/>
    <polygon fill="#6AE28C" points="575.5 58.672 577.119 58.672 577.119 30.116 575.5 30.116"/>
    <path fill="#EBF4FF" d="M906.2549,38.1163 C906.2549,43.6413 901.7749,48.1223 896.2489,48.1223 C890.7229,48.1223 886.2429,43.6413 886.2429,38.1163 C886.2429,32.5903 890.7229,28.1103 896.2489,28.1103 C901.7749,28.1103 906.2549,32.5903 906.2549,38.1163"/>
    <polygon fill="#EBF4FF" points="895.44 58.672 897.059 58.672 897.059 30.116 895.44 30.116"/>
    <path fill="#6AE28C" d="M943.9727,30.1163 C943.9727,37.2383 938.1997,43.0123 931.0767,43.0123 C923.9547,43.0123 918.1817,37.2383 918.1817,30.1163 C918.1817,22.9943 923.9547,17.2203 931.0767,17.2203 C938.1997,17.2203 943.9727,22.9943 943.9727,30.1163"/>
    <polygon fill="#6AE28C" points="930.268 58.672 931.887 58.672 931.887 30.116 930.268 30.116"/>
    <path fill="#6AE28C" d="M164.7886,140.9825 C164.7886,148.1045 159.0156,153.8785 151.8926,153.8785 C144.7706,153.8785 138.9976,148.1045 138.9976,140.9825 C138.9976,133.8605 144.7706,128.0865 151.8926,128.0865 C159.0156,128.0865 164.7886,133.8605 164.7886,140.9825"/>
    <polygon fill="#6AE28C" points="151.084 169.539 152.703 169.539 152.703 140.982 151.084 140.982"/>
    <path fill="#6AE28C" d="M512.1392,140.9825 C512.1392,148.1045 506.3662,153.8785 499.2432,153.8785 C492.1212,153.8785 486.3482,148.1045 486.3482,140.9825 C486.3482,133.8605 492.1212,128.0865 499.2432,128.0865 C506.3662,128.0865 512.1392,133.8605 512.1392,140.9825"/>
    <polygon fill="#6AE28C" points="498.434 169.539 500.053 169.539 500.053 140.982 498.434 140.982"/>
    <polygon fill="#FFF" points="402.998 169.539 350.998 169.539 350.998 88.967 376.998 70.61 402.998 88.967"/>
    <polygon fill="#000" points="402.998 88.967 376.998 70.611 412.745 70.539 438.998 88.967"/>
    <polygon fill="#0496FF" points="402.999 169.539 438.999 169.539 438.999 88.967 402.999 88.967"/>
    <polygon fill="#1D5FD1" points="372.999 112.539 379.999 112.539 379.999 105.539 372.999 105.539"/>
    <polygon fill="#1D5FD1" points="372.999 142.539 379.999 142.539 379.999 135.539 372.999 135.539"/>
    <polygon fill="#FFF" points="417.499 112.539 424.499 112.539 424.499 105.539 417.499 105.539"/>
    <polygon fill="#FFF" points="417.499 142.539 424.499 142.539 424.499 135.539 417.499 135.539"/>
    <path fill="#FFF" d="M1113.7041 80.3682L777.4631 80.3682C775.7951 80.3682 774.4431 79.0162 774.4431 77.3492 774.4431 75.6822 775.7951 74.3312 777.4631 74.3312L1113.7041 74.3312C1115.3711 74.3312 1116.7231 75.6822 1116.7231 77.3492 1116.7231 79.0162 1115.3711 80.3682 1113.7041 80.3682M1123.7041 99.4434L787.4631 99.4434C785.7951 99.4434 784.4431 98.0914 784.4431 96.4244 784.4431 94.7574 785.7951 93.4064 787.4631 93.4064L1123.7041 93.4064C1125.3711 93.4064 1126.7231 94.7574 1126.7231 96.4244 1126.7231 98.0914 1125.3711 99.4434 1123.7041 99.4434M1133.7041 118.5196L797.4631 118.5196C795.7951 118.5196 794.4431 117.1676 794.4431 115.4996 794.4431 113.8326 795.7951 112.4816 797.4631 112.4816L1133.7041 112.4816C1135.3711 112.4816 1136.7231 113.8326 1136.7231 115.4996 1136.7231 117.1676 1135.3711 118.5196 1133.7041 118.5196M1143.7041 137.5948L807.4631 137.5948C805.7951 137.5948 804.4431 136.2428 804.4431 134.5758 804.4431 132.9078 805.7951 131.5568 807.4631 131.5568L1143.7041 131.5568C1145.3711 131.5568 1146.7231 132.9078 1146.7231 134.5758 1146.7231 136.2428 1145.3711 137.5948 1143.7041 137.5948M1153.7041 156.67L817.4631 156.67C815.7951 156.67 814.4431 155.318 814.4431 153.651 814.4431 151.983 815.7951 150.632 817.4631 150.632L1153.7041 150.632C1155.3711 150.632 1156.7231 151.983 1156.7231 153.651 1156.7231 155.318 1155.3711 156.67 1153.7041 156.67"/>
    <polygon fill="#1D5FD1" points="1049.502 169.539 1093.896 169.539 1093.896 133.194 1071.698 117.523 1049.502 133.194"/>
    <polygon fill="#000" points="1049.502 133.194 1071.698 117.523 1027.522 117.462 1005.108 133.194"/>
    <polygon fill="#FFF" points="1005.108 169.539 1049.502 169.539 1049.502 133.194 1005.108 133.194"/>
    <polygon fill="#FFF" points="1069.138 153.318 1075.114 153.318 1075.114 147.341 1069.138 147.341"/>
    <polygon fill="#1D5FD1" points="1033.281 153.318 1039.258 153.318 1039.258 147.341 1033.281 147.341"/>
    <polygon fill="#1D5FD1" points="1015.354 153.318 1021.33 153.318 1021.33 147.341 1015.354 147.341"/>
    <polygon fill="#FFF" points="1028.875 58.539 995.351 58.539 995.351 23.99 1012.113 11.155 1028.875 23.99"/>
    <polygon fill="#000" points="1028.875 23.99 1012.113 11.155 1022.819 11.109 1039.744 23.99"/>
    <polygon fill="#0496FF" points="1028.875 58.539 1039.744 58.539 1039.744 23.99 1028.875 23.99"/>
    <polygon fill="#FFF" points="824.716 169.539 772.716 169.539 772.716 126.967 798.716 108.61 824.716 126.967"/>
    <polygon fill="#000" points="824.716 126.967 798.716 108.611 850.463 108.539 876.716 126.967"/>
    <polygon fill="#0496FF" points="824.716 169.539 876.716 169.539 876.716 126.967 824.716 126.967"/>
    <polygon fill="#1D5FD1" points="794.716 150.539 801.716 150.539 801.716 143.539 794.716 143.539"/>
    <polygon fill="#FFF" points="836.716 150.539 843.716 150.539 843.716 143.539 836.716 143.539"/>
    <polygon fill="#FFF" points="857.716 150.539 864.716 150.539 864.716 143.539 857.716 143.539"/>
    <path fill="#6AE28C" d="M915.1074,140.9825 C915.1074,148.1045 909.3344,153.8785 902.2114,153.8785 C895.0894,153.8785 889.3164,148.1045 889.3164,140.9825 C889.3164,133.8605 895.0894,128.0865 902.2114,128.0865 C909.3344,128.0865 915.1074,133.8605 915.1074,140.9825"/>
    <polygon fill="#6AE28C" points="901.402 169.539 903.021 169.539 903.021 140.982 901.402 140.982"/>
    <g fill="#1D5FD1" transform="translate(989.692 6.249)" class="windmill">
      <polygon points="26.314 22.42 22.421 18.527 40.949 0 44.841 3.893"/>
      <polygon points="3.894 44.84 0 40.947 18.528 22.42 22.421 26.313"/>
      <polygon points="22.421 26.313 26.314 22.42 44.841 40.948 40.948 44.84"/>
      <polygon points=".001 3.893 3.894 0 22.422 18.528 18.527 22.42"/>
    </g>
  </g>
</svg>
