<svg xmlns="http://www.w3.org/2000/svg" class="icon-search" viewBox="0 0 36 36"><path fill-rule="nonzero" d="M10.9988081,19.950743 C10.9995996,19.9670624 11,19.9834844 11,20 L11,27.4350288 C11,27.9873136 10.5522847,28.4350288 10,28.4350288 C9.44771525,28.4350288 9,27.9873136 9,27.4350288 L9,20 C9,19.9834844 9.00040037,19.9670624 9.00119194,19.950743 C3.94729793,19.4495707 0,15.1857558 0,10 C0,4.4771525 4.4771525,-2.27373675e-13 10,-2.27373675e-13 C15.5228475,-2.27373675e-13 20,4.4771525 20,10 C20,15.1857558 16.0527021,19.4495707 10.9988081,19.950743 Z M10,18 C14.418278,18 18,14.418278 18,10 C18,5.581722 14.418278,2 10,2 C5.581722,2 2,5.581722 2,10 C2,14.418278 5.581722,18 10,18 Z" transform="rotate(-45 21.036 4.429)"/></svg>